HIERARCHY
ROOT Hips
{
  OFFSET -553.984 91.5098 755.595
  CHANNELS 6 Xposition Yposition Zposition Zrotation Xrotation Yrotation
  JOINT Spine
  {
    OFFSET 0 8 0
    CHANNELS 6 Xposition Yposition Zposition Zrotation Xrotation Yrotation
    JOINT Spine1
    {
      OFFSET 5.8554e-05 7.99982 0.0541107
      CHANNELS 6 Xposition Yposition Zposition Zrotation Xrotation Yrotation
      JOINT Spine2
      {
        OFFSET -4.55257e-05 8 -1.35045e-05
        CHANNELS 6 Xposition Yposition Zposition Zrotation Xrotation Yrotation
        JOINT Spine3
        {
          OFFSET 0 8 0
          CHANNELS 6 Xposition Yposition Zposition Zrotation Xrotation Yrotation
          JOINT Neck
          {
            OFFSET 0.00013842 17 -0.000235679
            CHANNELS 6 Xposition Yposition Zposition Zrotation Xrotation Yrotation
            JOINT Head
            {
              OFFSET -2.79249e-05 10.8 -3.45018e-05
              CHANNELS 6 Xposition Yposition Zposition Zrotation Xrotation Yrotation
              End Site
              {
                OFFSET 0 20.25 0
              }
            }
          }
          JOINT LeftShoulder
          {
            OFFSET 5.00009 17 -0.000209452
            CHANNELS 6 Xposition Yposition Zposition Zrotation Xrotation Yrotation
            JOINT LeftShoulder2
            {
              OFFSET 6.45 0 0
              CHANNELS 6 Xposition Yposition Zposition Zrotation Xrotation Yrotation
              JOINT LeftArm
              {
                OFFSET 6.45002 -0.000380746 -0.000799123
                CHANNELS 6 Xposition Yposition Zposition Zrotation Xrotation Yrotation
                JOINT LeftForeArm
                {
                  OFFSET -2.96438e-05 -32.4 -2.06934
                  CHANNELS 6 Xposition Yposition Zposition Zrotation Xrotation Yrotation
                  JOINT LeftHand
                  {
                    OFFSET 5.40935e-05 -25.653 2.00003
                    CHANNELS 6 Xposition Yposition Zposition Zrotation Xrotation Yrotation
                    JOINT LeftHandThumb1
                    {
                      OFFSET -0.49998 -1.49996 2.64995
                      CHANNELS 6 Xposition Yposition Zposition Zrotation Xrotation Yrotation
                      JOINT LeftHandThumb2
                      {
                        OFFSET -4.23455e-05 -3.79993 3.69995
                        CHANNELS 6 Xposition Yposition Zposition Zrotation Xrotation Yrotation
                        JOINT LeftHandThumb3
                        {
                          OFFSET -7.11941e-05 -2.99995 2.70007
                          CHANNELS 6 Xposition Yposition Zposition Zrotation Xrotation Yrotation
                          End Site
                          {
                            OFFSET 4.25176e-05 -2.29999 1.79998
                          }
                        }
                      }
                    }
                    JOINT LeftHandIndex
                    {
                      OFFSET -1.20962e-05 -1.90004 1.60004
                      CHANNELS 6 Xposition Yposition Zposition Zrotation Xrotation Yrotation
                      JOINT LeftHandIndex1
                      {
                        OFFSET 0 -8.30002 1.89997
                        CHANNELS 6 Xposition Yposition Zposition Zrotation Xrotation Yrotation
                        JOINT LeftHandIndex2
                        {
                          OFFSET -2.56198e-05 -4.49998 -4.97867e-05
                          CHANNELS 6 Xposition Yposition Zposition Zrotation Xrotation Yrotation
                          JOINT LeftHandIndex3
                          {
                            OFFSET 5.18516e-05 -3.4 3.07688e-05
                            CHANNELS 6 Xposition Yposition Zposition Zrotation Xrotation Yrotation
                            End Site
                            {
                              OFFSET -1.77615e-05 -2.60003 4.62406e-05
                            }
                          }
                        }
                      }
                    }
                    JOINT LeftHandMiddle
                    {
                      OFFSET -0.249994 -2.19998 0.400109
                      CHANNELS 6 Xposition Yposition Zposition Zrotation Xrotation Yrotation
                      JOINT LeftHandMiddle1
                      {
                        OFFSET -4.24415e-05 -8.30005 1.01989
                        CHANNELS 6 Xposition Yposition Zposition Zrotation Xrotation Yrotation
                        JOINT LeftHandMiddle2
                        {
                          OFFSET 1.06981e-05 -4.65001 4.63926e-05
                          CHANNELS 6 Xposition Yposition Zposition Zrotation Xrotation Yrotation
                          JOINT LeftHandMiddle3
                          {
                            OFFSET 0 -3.3 0
                            CHANNELS 6 Xposition Yposition Zposition Zrotation Xrotation Yrotation
                            End Site
                            {
                              OFFSET 0 -2.69995 3.70651e-05
                            }
                          }
                        }
                      }
                    }
                    JOINT LeftHandRing
                    {
                      OFFSET -0.500005 -2.05527 -0.799988
                      CHANNELS 6 Xposition Yposition Zposition Zrotation Xrotation Yrotation
                      JOINT LeftHandRing1
                      {
                        OFFSET 1.01416e-05 -7.79567 -0.200012
                        CHANNELS 6 Xposition Yposition Zposition Zrotation Xrotation Yrotation
                        JOINT LeftHandRing2
                        {
                          OFFSET -0.0407577 -3.79998 0.000111707
                          CHANNELS 6 Xposition Yposition Zposition Zrotation Xrotation Yrotation
                          JOINT LeftHandRing3
                          {
                            OFFSET 0.000873679 -3.39994 2.86094e-05
                            CHANNELS 6 Xposition Yposition Zposition Zrotation Xrotation Yrotation
                            End Site
                            {
                              OFFSET 3.49822e-05 -2.60001 -7.74836e-05
                            }
                          }
                        }
                      }
                    }
                    JOINT LeftHandPinky
                    {
                      OFFSET -0.749964 -1.74999 -1.84995
                      CHANNELS 6 Xposition Yposition Zposition Zrotation Xrotation Yrotation
                      JOINT LeftHandPinky1
                      {
                        OFFSET 6.79169e-05 -7.15004 -1.00003
                        CHANNELS 6 Xposition Yposition Zposition Zrotation Xrotation Yrotation
                        JOINT LeftHandPinky2
                        {
                          OFFSET 0.0563183 -2.99999 -6.59616e-05
                          CHANNELS 6 Xposition Yposition Zposition Zrotation Xrotation Yrotation
                          JOINT LeftHandPinky3
                          {
                            OFFSET -3.42138e-05 -2.35002 5.28653e-05
                            CHANNELS 6 Xposition Yposition Zposition Zrotation Xrotation Yrotation
                            End Site
                            {
                              OFFSET 1.82885e-05 -2.10005 2.2362e-05
                            }
                          }
                        }
                      }
                    }
                  }
                }
              }
            }
          }
          JOINT RightShoulder
          {
            OFFSET -4.99986 17 -0.000134694
            CHANNELS 6 Xposition Yposition Zposition Zrotation Xrotation Yrotation
            JOINT RightShoulder2
            {
              OFFSET -6.45 0 0
              CHANNELS 6 Xposition Yposition Zposition Zrotation Xrotation Yrotation
              JOINT RightArm
              {
                OFFSET -6.45002 0.000350595 0.000490307
                CHANNELS 6 Xposition Yposition Zposition Zrotation Xrotation Yrotation
                JOINT RightForeArm
                {
                  OFFSET 1.76949e-05 -32.4 -2.00003
                  CHANNELS 6 Xposition Yposition Zposition Zrotation Xrotation Yrotation
                  JOINT RightHand
                  {
                    OFFSET 0.072816 -25.6499 2.00006
                    CHANNELS 6 Xposition Yposition Zposition Zrotation Xrotation Yrotation
                    JOINT RightHandThumb1
                    {
                      OFFSET 0.499994 -1.50004 2.65001
                      CHANNELS 6 Xposition Yposition Zposition Zrotation Xrotation Yrotation
                      JOINT RightHandThumb2
                      {
                        OFFSET 0.0551468 -3.79997 3.70003
                        CHANNELS 6 Xposition Yposition Zposition Zrotation Xrotation Yrotation
                        JOINT RightHandThumb3
                        {
                          OFFSET 0.0173529 -3 2.70003
                          CHANNELS 6 Xposition Yposition Zposition Zrotation Xrotation Yrotation
                          End Site
                          {
                            OFFSET -6.31679e-05 -2.3 1.80002
                          }
                        }
                      }
                    }
                    JOINT RightHandIndex
                    {
                      OFFSET -1.42765e-05 -1.89999 1.60001
                      CHANNELS 6 Xposition Yposition Zposition Zrotation Xrotation Yrotation
                      JOINT RightHandIndex1
                      {
                        OFFSET 3.76413e-05 -8.30001 1.89997
                        CHANNELS 6 Xposition Yposition Zposition Zrotation Xrotation Yrotation
                        JOINT RightHandIndex2
                        {
                          OFFSET -3.50209e-05 -4.5 0.0327576
                          CHANNELS 6 Xposition Yposition Zposition Zrotation Xrotation Yrotation
                          JOINT RightHandIndex3
                          {
                            OFFSET 0 -3.39998 -5.03537e-05
                            CHANNELS 6 Xposition Yposition Zposition Zrotation Xrotation Yrotation
                            End Site
                            {
                              OFFSET -5.02689e-05 -2.60002 3.85525e-05
                            }
                          }
                        }
                      }
                    }
                    JOINT RightHandMiddle
                    {
                      OFFSET 0.250073 -2.2 0.399946
                      CHANNELS 6 Xposition Yposition Zposition Zrotation Xrotation Yrotation
                      JOINT RightHandMiddle1
                      {
                        OFFSET -1.44988e-05 -8.30001 1.00371
                        CHANNELS 6 Xposition Yposition Zposition Zrotation Xrotation Yrotation
                        JOINT RightHandMiddle2
                        {
                          OFFSET 3.05546e-05 -4.64997 -2.0707e-05
                          CHANNELS 6 Xposition Yposition Zposition Zrotation Xrotation Yrotation
                          JOINT RightHandMiddle3
                          {
                            OFFSET -4.81106e-05 -3.24465 2.59571e-05
                            CHANNELS 6 Xposition Yposition Zposition Zrotation Xrotation Yrotation
                            End Site
                            {
                              OFFSET -4.79199e-05 -2.69998 -8.31267e-05
                            }
                          }
                        }
                      }
                    }
                    JOINT RightHandRing
                    {
                      OFFSET 0.499923 -2.14996 -0.80004
                      CHANNELS 6 Xposition Yposition Zposition Zrotation Xrotation Yrotation
                      JOINT RightHandRing1
                      {
                        OFFSET -1.26108e-05 -7.74995 -0.199909
                        CHANNELS 6 Xposition Yposition Zposition Zrotation Xrotation Yrotation
                        JOINT RightHandRing2
                        {
                          OFFSET 4.74805e-05 -3.79999 -5.39279e-05
                          CHANNELS 6 Xposition Yposition Zposition Zrotation Xrotation Yrotation
                          JOINT RightHandRing3
                          {
                            OFFSET -7.99602e-05 -3.40004 0
                            CHANNELS 6 Xposition Yposition Zposition Zrotation Xrotation Yrotation
                            End Site
                            {
                              OFFSET 6.23506e-05 -2.60003 7.19029e-05
                            }
                          }
                        }
                      }
                    }
                    JOINT RightHandPinky
                    {
                      OFFSET 0.749986 -1.74995 -1.8371
                      CHANNELS 6 Xposition Yposition Zposition Zrotation Xrotation Yrotation
                      JOINT RightHandPinky1
                      {
                        OFFSET 5.61366e-05 -7.15007 -0.999961
                        CHANNELS 6 Xposition Yposition Zposition Zrotation Xrotation Yrotation
                        JOINT RightHandPinky2
                        {
                          OFFSET 3.97432e-05 -3.00004 2.94388e-05
                          CHANNELS 6 Xposition Yposition Zposition Zrotation Xrotation Yrotation
                          JOINT RightHandPinky3
                          {
                            OFFSET 0 -2.34996 1.46867e-05
                            CHANNELS 6 Xposition Yposition Zposition Zrotation Xrotation Yrotation
                            End Site
                            {
                              OFFSET 2.59978e-05 -2.10628 0.0147297
                            }
                          }
                        }
                      }
                    }
                  }
                }
              }
            }
          }
        }
      }
    }
  }
  JOINT LeftUpLeg
  {
    OFFSET 8.00002 0 -1.33196e-05
    CHANNELS 6 Xposition Yposition Zposition Zrotation Xrotation Yrotation
    JOINT LeftLeg
    {
      OFFSET -6.30835e-05 -45.0001 -0.999963
      CHANNELS 6 Xposition Yposition Zposition Zrotation Xrotation Yrotation
      JOINT LeftFoot
      {
        OFFSET -4.04961e-05 -41 -2.00004
        CHANNELS 6 Xposition Yposition Zposition Zrotation Xrotation Yrotation
        JOINT LeftToeBase
        {
          OFFSET -5.90721e-05 -7.5 12.4999
          CHANNELS 6 Xposition Yposition Zposition Zrotation Xrotation Yrotation
          JOINT LeftFootToe
          {
            OFFSET 0 0 4
            CHANNELS 6 Xposition Yposition Zposition Zrotation Xrotation Yrotation
            End Site
            {
              OFFSET 0 0 0
            }
          }
        }
      }
    }
  }
  JOINT RightUpLeg
  {
    OFFSET -8.00002 0 1.33196e-05
    CHANNELS 6 Xposition Yposition Zposition Zrotation Xrotation Yrotation
    JOINT RightLeg
    {
      OFFSET 1.16315e-05 -45 -1.00001
      CHANNELS 6 Xposition Yposition Zposition Zrotation Xrotation Yrotation
      JOINT RightFoot
      {
        OFFSET -6.95899e-05 -41 -1.99995
        CHANNELS 6 Xposition Yposition Zposition Zrotation Xrotation Yrotation
        JOINT RightToeBase
        {
          OFFSET 3.6107e-05 -7.5 12.5
          CHANNELS 6 Xposition Yposition Zposition Zrotation Xrotation Yrotation
          JOINT RightFootToe
          {
            OFFSET 0 0 4
            CHANNELS 6 Xposition Yposition Zposition Zrotation Xrotation Yrotation
            End Site
            {
              OFFSET 0 0 0
            }
          }
        }
      }
    }
  }
}
MOTION
Frames:	3
Frame Time:	0.0111111
-537.048 91.5464 748.126 2.14399 5.86015 -110.102 -1.13687e-13 8 -2.84217e-14 4.9819 10.4762 5.75776 1.13687e-13 8 1.13687e-13 0.182157 5.20221 1.94477 -1.13687e-13 8 5.68434e-14 0.113105 2.60187 0.973713 0 8 -1.13687e-13 0.112989 2.59871 0.971905 0 17 0 3.15639 -0.446313 -8.89564 -1.13687e-13 10.8 -2.84217e-14 7.20667 -1.82083 -20.8023 5 17 0 3.70631 -2.74893 1.67986 6.45 -5.68434e-14 5.68434e-14 -1.04258 -0.894139 -2.01285 6.45 5.68434e-14 5.68434e-14 49.1737 -37.6879 47.7973 -1.13687e-13 -32.4 -2 -13.4171 -21.5171 -9.68356 0 -25.65 2 -6.13878 -25.1763 -9.89644 -0.5 -1.5 2.65 11.2638 -11.7639 3.20393 0 -3.8 3.7 0.380356 0.43911 -0.183092 0 -3 2.7 0.0211533 1.37657 -0.0466566 -1.13687e-13 -1.9 1.6 -5.85861e-07 7.67698e-06 1.15457e-05 0 -8.3 1.9 -24.6399 -30.5827 -6.25679 2.27374e-13 -4.5 -5.68434e-14 -0.735904 0.0191603 -0.0245713 0 -3.4 -5.68434e-14 5.50816e-05 0.0069782 -0.0238614 -0.25 -2.2 0.4 -5.85861e-07 7.67698e-06 1.15457e-05 0 -8.3 1 -20.3876 -28.7193 -4.44438 1.13687e-13 -4.65 0 -3.3406 -0.175558 -0.0812766 0 -3.3 0 0.000253277 0.082053 -0.068281 -0.5 -2.15 -0.8 -5.85861e-07 7.67698e-06 1.15457e-05 -1.13687e-13 -7.75 -0.2 -14.2411 -25.7912 -1.86737 1.13687e-13 -3.8 -5.68434e-14 -1.79234 -0.400201 -0.213146 1.13687e-13 -3.4 -5.68434e-14 -0.000706083 -0.15143 -0.197025 -0.75 -1.75 -1.85 -5.85861e-07 7.67698e-06 1.15457e-05 0 -7.15 -1 -12.2965 -24.6391 -0.866327 0 -3 5.68434e-14 -5.87344 0.144567 -0.102673 1.13687e-13 -2.35 -5.68434e-14 0.000134079 0.146149 -9.12727e-05 -5 17 -1.13687e-13 0.942417 -0.647623 3.19554 -6.45 0 0 -1.23234 -0.30828 -2.02756 -6.45 -2.84217e-14 0 2.83119 -48.3095 8.92231 1.13687e-13 -32.4 -2 15.764 -53.9742 4.30059 1.13687e-13 -25.65 2 -41.5152 5.26334 35.6832 0.5 -1.5 2.65 6.37678 70.8419 -176.553 0 -3.8 3.7 0.677301 14.3257 0.383267 0 -3 2.7 0.0447918 2.06513 -0.022504 0 -1.9 1.6 -5.06956e-05 1.72838e-05 -2.60034e-05 -1.13687e-13 -8.3 1.9 17.9558 2.1771 -0.190192 0 -4.5 0 1.96553 -0.0127225 0.0137824 -1.13687e-13 -3.4 0 3.89775e-06 -0.013431 0.0106699 0.25 -2.2 0.4 -5.06956e-05 1.72838e-05 -2.60034e-05 0 -8.3 1 22.4655 6.50238 -1.66698 1.13687e-13 -4.65 0 82.1459 0.0337583 -0.168365 -5.68434e-14 -3.3 0 67.2954 -0.243149 -0.175472 0.5 -2.15 -0.8 -5.06956e-05 1.72838e-05 -2.60034e-05 1.13687e-13 -7.75 -0.2 35.665 8.00653 -4.03875 1.13687e-13 -3.8 0 65.0358 0.0367707 -0.326037 5.68434e-14 -3.4 1.13687e-13 46.8844 -0.218133 -0.248923 0.75 -1.75 -1.85 -5.06956e-05 1.72838e-05 -2.60034e-05 -1.13687e-13 -7.15 -1 34.8669 10.5035 -5.02783 1.13687e-13 -3 0 52.383 0.0482599 -0.160331 0 -2.35 0 36.2272 -0.038212 -0.110705 8 0 -1.42109e-13 15.1149 -34.3035 0.0234862 0 -45 -1 1.99714 6.92053 2.77851 -1.13687e-13 -41 -2 -8.96007 20.4063 -8.52232 -1.13687e-13 -7.5 12.5 4.27318e-06 -1.81772e-06 -9.35499e-06 0 7.10543e-15 4 -0.40679 -7.7136 -6.40013 -8 0 0 -0.487862 -15.0949 -19.0402 -2.27374e-13 -45 -1 0.539805 28.6339 10.5181 0 -41 -2 -1.27439 -12.1899 -23.4605 1.13687e-13 -7.5 12.5 -7.037e-07 -6.28026e-06 -4.09558e-05 -1.13687e-13 0 4 1.06968 0.342362 13.5754 
-537.031 91.5419 748.14 2.13768 5.86257 -110.041 1.13687e-13 8 -2.84217e-14 4.97006 10.4836 5.77095 1.13687e-13 8 -5.68434e-14 0.193937 5.21332 1.94354 0 8 0 0.119087 2.60738 0.97283 0 8 1.13687e-13 0.118866 2.60427 0.971181 0 17 0 3.17758 -0.45446 -8.98782 0 10.8 -2.84217e-14 7.25159 -1.85452 -21.0191 5 17 5.68434e-14 3.70563 -2.77089 1.63547 6.45 0 0 -1.0496 -0.899286 -2.02384 6.45 0 -5.68434e-14 49.3985 -37.9213 47.5946 -1.13687e-13 -32.4 -2 -13.4318 -21.597 -9.61049 0 -25.65 2 -6.09083 -24.9006 -9.92101 -0.5 -1.5 2.65 11.3833 -11.6798 3.41071 0 -3.8 3.7 0.380696 0.43911 -0.182484 0 -3 2.7 0.0261504 2.034 -0.0480793 -1.13687e-13 -1.9 1.6 -5.85861e-07 7.67698e-06 1.15457e-05 0 -8.3 1.9 -23.5527 -30.2802 -5.91968 -1.13687e-13 -4.5 0 -0.736127 0.0183039 -0.0236478 0 -3.4 0 5.38498e-05 0.00723641 -0.0229913 -0.25 -2.2 0.4 -5.85861e-07 7.67698e-06 1.15457e-05 0 -8.3 1 -19.5863 -28.403 -4.223 -1.13687e-13 -4.65 0 -3.34057 -0.175746 -0.0813618 0 -3.3 0 0.000253855 0.0826986 -0.0683297 -0.5 -2.15 -0.8 -5.85861e-07 7.67698e-06 1.15457e-05 -1.13687e-13 -7.75 -0.2 -13.5846 -25.373 -1.73513 1.13687e-13 -3.8 5.68434e-14 -1.79233 -0.400032 -0.212224 0 -3.4 0 -0.000706763 -0.152577 -0.196137 -0.75 -1.75 -1.85 -5.85861e-07 7.67698e-06 1.15457e-05 -1.13687e-13 -7.15 -1 -11.7039 -24.2114 -0.780419 0 -3 -5.68434e-14 -5.87416 0.144268 -0.101154 0 -2.35 0 0.000133611 0.145748 -9.05214e-05 -5 17 1.13687e-13 0.945693 -0.754777 3.13323 -6.45 0 0 -1.23207 -0.294536 -2.04304 -6.45 -5.68434e-14 0 2.81571 -48.158 8.71564 0 -32.4 -2 16.2493 -53.3621 3.52409 0 -25.65 2 -39.7526 6.46078 32.0719 0.5 -1.5 2.65 -15.7319 73.4139 -158.164 1.13687e-13 -3.8 3.7 0.554285 21.0703 0.389464 0 -3 2.7 0.037196 2.96171 -0.0292342 0 -1.9 1.6 -5.06956e-05 1.72838e-05 -2.60034e-05 0 -8.3 1.9 18.2432 3.64364 -0.473157 0 -4.5 0 1.96553 -0.0134217 0.0138642 0 -3.4 0 4.1247e-06 -0.0141784 0.0107318 0.25 -2.2 0.4 -5.06956e-05 1.72838e-05 -2.60034e-05 1.13687e-13 -8.3 1 22.7846 7.3651 -1.89524 0 -4.65 0 81.3535 0.0383472 -0.170649 0 -3.3 0 65.9463 -0.236658 -0.182599 0.5 -2.15 -0.8 -5.06956e-05 1.72838e-05 -2.60034e-05 -1.13687e-13 -7.75 -0.2 36.0459 8.33186 -4.20934 1.13687e-13 -3.8 -1.13687e-13 63.2947 0.0421092 -0.283073 0 -3.4 0 45.185 -0.169647 -0.21825 0.75 -1.75 -1.85 -5.06956e-05 1.72838e-05 -2.60034e-05 -1.13687e-13 -7.15 -1 34.7087 10.3949 -4.96048 -1.13687e-13 -3 -1.13687e-13 51.2604 0.0530537 -0.154052 0 -2.35 -1.13687e-13 35.4247 -0.0303004 -0.107108 8 0 0 15.0758 -34.299 0.00722692 1.13687e-13 -45 -1 1.99939 6.84681 2.78248 0 -41 -2 -8.90553 20.3708 -8.56731 0 -7.5 12.5 4.27318e-06 -1.81772e-06 -9.35499e-06 -2.27374e-13 -7.10543e-15 4 -0.450343 -7.63133 -6.39892 -8 2.84217e-14 -2.84217e-14 -0.502218 -15.1124 -19.0614 0 -45 -1 0.53997 28.6604 10.5209 0 -41 -2 -1.27337 -12.195 -23.5006 0 -7.5 12.5 -7.037e-07 -6.28055e-06 -4.09558e-05 0 -2.22045e-16 4 1.0846 0.316553 13.5754 
-537.014 91.5361 748.154 2.13201 5.86501 -109.987 0 8 2.84217e-14 4.96185 10.4851 5.78481 0 8 0 0.207208 5.22351 1.94237 -1.13687e-13 8 5.68434e-14 0.125765 2.61244 0.971994 0 8 0 0.125463 2.60932 0.970538 0 17 5.68434e-14 3.195 -0.460649 -9.0769 1.13687e-13 10.8 -2.84217e-14 7.28793 -1.88464 -21.2286 5 17 0 3.69763 -2.78622 1.58889 6.45 0 1.13687e-13 -1.05483 -0.901601 -2.03195 6.45 -5.68434e-14 -1.13687e-13 49.6684 -38.1575 47.4753 0 -32.4 -2 -13.4544 -21.6925 -9.60619 -1.13687e-13 -25.65 2 -6.07626 -24.5514 -9.96831 -0.5 -1.5 2.65 11.4618 -11.5709 3.60026 -1.13687e-13 -3.8 3.7 0.38102 0.43911 -0.181876 0 -3 2.7 0.0362492 2.82836 -0.0500591 0 -1.9 1.6 -5.85861e-07 7.67698e-06 1.15457e-05 0 -8.3 1.9 -22.372 -29.9154 -5.54938 0 -4.5 -5.68434e-14 -0.73635 0.0173824 -0.0227086 0 -3.4 0 5.25766e-05 0.00749046 -0.0221128 -0.25 -2.2 0.4 -5.85861e-07 7.67698e-06 1.15457e-05 0 -8.3 1 -18.664 -28.0138 -3.96648 0 -4.65 -5.68434e-14 -3.34054 -0.175929 -0.0814451 1.13687e-13 -3.3 0 0.000254416 0.0833347 -0.068377 -0.5 -2.15 -0.8 -5.85861e-07 7.67698e-06 1.15457e-05 1.13687e-13 -7.75 -0.2 -12.8245 -24.869 -1.58323 0 -3.8 5.68434e-14 -1.79232 -0.399858 -0.211298 1.13687e-13 -3.4 5.68434e-14 -0.000707306 -0.153696 -0.195248 -0.75 -1.75 -1.85 -5.85861e-07 7.67698e-06 1.15457e-05 0 -7.15 -1 -10.9983 -23.6886 -0.678667 1.13687e-13 -3 1.13687e-13 -5.87487 0.143965 -0.0996395 1.13687e-13 -2.35 0 0.000133139 0.145353 -8.97679e-05 -5 17 5.68434e-14 0.947762 -0.866317 3.08468 -6.45 -2.84217e-14 0 -1.23181 -0.280607 -2.05976 -6.45 5.68434e-14 5.68434e-14 2.77486 -48.0291 8.51633 1.13687e-13 -32.4 -2 16.6009 -52.8388 2.86379 -1.13687e-13 -25.65 2 -37.9783 7.61885 28.622 0.5 -1.5 2.65 -38.3715 73.745 -138.957 0 -3.8 3.7 0.378201 27.8425 0.266179 0 -3 2.7 0.0226254 3.85748 -0.0573289 0 -1.9 1.6 -5.06956e-05 1.72838e-05 -2.60034e-05 -2.27374e-13 -8.3 1.9 18.4846 4.95741 -0.767132 -1.13687e-13 -4.5 -1.13687e-13 1.96553 -0.0142134 0.0139432 -1.13687e-13 -3.4 0 4.34984e-06 -0.0148984 0.0107914 0.25 -2.2 0.4 -5.06956e-05 1.72838e-05 -2.60034e-05 0 -8.3 1 22.9965 8.08374 -2.09909 0 -4.65 0 80.4154 0.0400945 -0.144557 2.84217e-14 -3.3 0 64.3924 -0.187231 -0.165458 0.5 -2.15 -0.8 -5.06956e-05 1.72838e-05 -2.60034e-05 0 -7.75 -0.2 36.2204 8.59981 -4.33015 -1.13687e-13 -3.8 1.13687e-13 61.5027 0.0517003 -0.226273 0 -3.4 0 43.565 -0.113978 -0.179928 0.75 -1.75 -1.85 -5.06956e-05 1.72838e-05 -2.60034e-05 1.13687e-13 -7.15 -1 34.3537 10.256 -4.82841 -1.13687e-13 -3 0 50.2835 0.056798 -0.142853 -5.68434e-14 -2.35 0 34.7501 -0.0232533 -0.102045 8 0 -2.84217e-14 15.0382 -34.2936 -0.0212525 0 -45 -1 2.00211 6.77554 2.78153 1.13687e-13 -41 -2 -8.8652 20.3512 -8.59377 1.13687e-13 -7.5 12.5 4.27318e-06 -1.81772e-06 -9.35499e-06 0 0 4 -0.486562 -7.56183 -6.39792 -8 0 -2.84217e-14 -0.516269 -15.1327 -19.0797 0 -45 -1 0.540329 28.6911 10.524 0 -41 -2 -1.272 -12.2017 -23.5353 0 -7.5 12.5 -7.037e-07 -6.28084e-06 -4.09558e-05 0 -2.22045e-16 4 1.09935 0.29171 13.5753 
